<svg xmlns="http://www.w3.org/2000/svg" viewBox="0 0 32 32">
  <defs>
    <linearGradient id="o" x1="0" x2="1" y1="0" y2="1">
      <stop offset="0" stop-color="#f59e0b"/>
      <stop offset="1" stop-color="#f97316"/>
    </linearGradient>
    <linearGradient id="b" x1="0" x2="0" y1="1" y2="0">
      <stop offset="0" stop-color="#1E3A8A"/>
      <stop offset="1" stop-color="#1D4ED8"/>
    </linearGradient>
  </defs>
  <path d="M18 2c-6 1-10 6-10 12s4 11 10 12c-4-2-6-6-6-12s2-10 6-12z" fill="url(#o)"/>
  <rect x="9" y="17" width="3" height="9" rx="1" fill="url(#b)"/>
  <rect x="13" y="14" width="3" height="12" rx="1" fill="url(#b)"/>
  <rect x="17" y="11" width="4" height="15" rx="1" fill="url(#b)"/>
  <path d="M8 24c4 2 10 3 14 2l-1 2c3-1 5-2 6-3-3 1-6 0-9 0-5-1-9-2-10-3z" fill="#1E3A8A"/>
</svg>